<svg xmlns="http://www.w3.org/2000/svg" xmlns:xlink="http://www.w3.org/1999/xlink" viewBox="0 0 28 28">
                    <defs>
                        <clipPath id="clip-path">
                            <path style="fill:none;" d="M22.79,12.36H14.21v3.48h4.94c-.46,2.21-2.39,3.48-4.94,3.48A5.32,5.32,0,1,1,17.6,9.87l2.68-2.62A9.29,9.29,0,0,0,14.21,5,9.08,9.08,0,0,0,5,14a9.08,9.08,0,0,0,9.21,9A8.59,8.59,0,0,0,23,14,7.31,7.31,0,0,0,22.79,12.36Z"></path>
                        </clipPath>
                    </defs>
                    <g>
                        <path style="fill:#fff;" d="M26.45,0H1.55A1.55,1.55,0,0,0,0,1.55V26.45A1.55,1.55,0,0,0,1.55,28H26.45A1.55,1.55,0,0,0,28,26.45V1.55A1.55,1.55,0,0,0,26.45,0Z"></path>
                        <g style="clip-path:url(#clip-path);">
                            <path style="fill:#fbbc05;" d="M4.16,19.32V8.68L11.28,14Z"></path>
                        </g>
                        <g style="clip-path:url(#clip-path);">
                            <path style="fill:#ea4335;" d="M4.16,8.68,11.28,14l2.93-2.5,10-1.6V4.18H4.16Z"></path>
                        </g>
                        <g style="clip-path:url(#clip-path);">
                            <path style="fill:#34a853;" d="M4.16,19.32,16.72,9.91l3.31.41,4.23-6.14V23.82H4.16Z"></path>
                        </g>
                        <g style="clip-path:url(#clip-path);">
                            <path style="fill:#4285f4;" d="M24.26,23.82,11.28,14,9.6,12.77,24.26,8.68Z"></path>
                        </g>
                    </g>
                </svg>